<?xml version="1.0" encoding="utf-8"?>
<!-- Generator: Adobe Illustrator 23.0.3, SVG Export Plug-In . SVG Version: 6.00 Build 0)  -->
<svg version="1.1" id="Layer_5" xmlns="http://www.w3.org/2000/svg" xmlns:xlink="http://www.w3.org/1999/xlink" x="0px" y="0px"
	 viewBox="0 0 595.28 841.89" style="enable-background:new 0 0 595.28 841.89;" xml:space="preserve">
<style type="text/css">
	.st0{fill:none;stroke:#FFAB0D;stroke-width:60;stroke-linecap:round;stroke-miterlimit:10;}
	.st1{fill:none;stroke:#FFAB0D;stroke-width:150;stroke-miterlimit:10;}
	.st2{fill:none;stroke:#FFAB0D;stroke-width:20;stroke-miterlimit:10;}
</style>
<g id="_x31_">
</g>
<g id="Layer_3">
</g>
<g id="gLOBE">
	<g>
		<path class="st0" d="M297.64,729.06c0,0,87.96-60.19,125.41-103.42c27.61-31.87,46.08-58.37,66.31-98.54
			c20.5-40.7,36.42-98.54,36.42-98.54V209.8c0,0-111.25-62.4-228.15-62.4c-93.12,0-228.15,62.57-228.15,62.57v218.75
			c0,0,15.92,57.84,36.42,98.54c20.23,40.17,38.7,66.67,66.31,98.54c37.45,43.23,125.41,103.42,125.41,103.42"/>
		<polyline class="st1" points="148.51,581.08 297.64,479.37 458.12,581.08 		"/>
		<g>
			<circle class="st2" cx="297.7" cy="283.42" r="93.18"/>
			<line class="st2" x1="204.52" y1="283.42" x2="390.76" y2="283.42"/>
			<line class="st2" x1="228.55" y1="345.88" x2="364.1" y2="345.88"/>
			<line class="st2" x1="297.7" y1="376.61" x2="297.7" y2="190.24"/>
			<line class="st2" x1="228.55" y1="220.96" x2="366.84" y2="220.96"/>
		</g>
		<ellipse class="st2" cx="297.64" cy="284.09" rx="60.23" ry="90.11"/>
	</g>
</g>
</svg>
